<?xml version="1.0" encoding="utf-8"?>
<!-- Generator: Adobe Illustrator 24.1.3, SVG Export Plug-In . SVG Version: 6.00 Build 0)  -->
<svg version="1.1" id="Layer_1" xmlns="http://www.w3.org/2000/svg" xmlns:xlink="http://www.w3.org/1999/xlink" x="0px" y="0px"
	 viewBox="0 0 200 200" style="enable-background:new 0 0 200 200;" xml:space="preserve">
<style type="text/css">
	.st0{fill:#1B1464;}
</style>
<g>
	<path class="st0" d="M95.3,14c3.2,0,6.3,0,9.5,0c0.4,0.1,0.8,0.2,1.1,0.3c12.2,2.3,21,9.1,26.4,20.3c2.7,5.8,3.4,11.9,3.1,18.2
		c-0.1,1.6,0.5,2.2,2.1,2.1c7.6-0.1,15.2,0.1,22.8-0.1c4.7-0.1,6.4,2.5,6.5,6.3c0.2,4.7,0.7,9.4,1.1,14.2c0.6,7.8,1.3,15.6,1.9,23.4
		c0.6,7.5,1.2,15.1,1.8,22.6c0.6,8,1.3,16,2,23.9c0.5,6.2,1,12.5,1.5,18.7c0.5,6.1,1,12.1,1.5,18.2c0.2,2.7-1.4,4.8-3.8,5.3
		c-0.7,0.1-1.5,0.1-2.2,0.1c-47.1,0-94.2,0-141.3,0c-0.5,0-0.9,0-1.4,0c-2.1-0.1-3.7-1.4-4.3-3.4c-0.4-1.2-0.2-2.3-0.1-3.5
		c0.5-6.3,1.1-12.6,1.6-18.9c0.6-7.6,1.2-15.3,1.8-22.9c0.7-9,1.5-18,2.2-27c0.6-7.8,1.2-15.5,1.8-23.3c0.7-9.3,1.6-18.6,2.3-28
		c0.3-3.9,2.1-5.7,6-5.7c7.6,0,15.1,0,22.7,0c2.1,0,2.2-0.1,2.2-2.2c0-1.7,0.1-3.5,0.2-5.2c0.7-12.3,6.5-21.6,16.7-28.2
		C85.4,16.3,90.2,14.9,95.3,14z M99.7,54.8c8,0,16,0,24,0c1,0,2,0,2-1.4c0-3.2,0.2-6.3-0.5-9.4c-2-10-10.1-18.1-20-20
		C94.5,22,83.7,26.5,78,35.3c-3.4,5.3-4.3,11-4.1,17.1c0.1,2.3,0.1,2.4,2.4,2.4C84.1,54.8,91.9,54.8,99.7,54.8z"/>
</g>
</svg>
