<?xml version="1.0" encoding="utf-8"?>
<!-- Generator: Adobe Illustrator 24.1.3, SVG Export Plug-In . SVG Version: 6.00 Build 0)  -->
<svg version="1.1" id="Layer_1" xmlns="http://www.w3.org/2000/svg" xmlns:xlink="http://www.w3.org/1999/xlink" x="0px" y="0px"
	 viewBox="0 0 400 400" style="enable-background:new 0 0 400 400;" xml:space="preserve">
<style type="text/css">
	.st0{fill:#FFFFFF;}
</style>
<g>
	<path class="st0" d="M342.5,367.9c-94.2,0-188.5,0-282.7,0c-5.2-2.8-6.5-7.3-5.9-12.9c1.2-12.2,2.1-24.4,3.1-36.6
		c1.2-14.7,2.3-29.4,3.5-44.1c1.4-17.3,2.9-34.6,4.3-51.9c1.2-14.9,2.3-29.8,3.5-44.8c1.4-17.9,3-35.9,4.4-53.8
		c0.6-7.3,4.1-10.9,11.4-10.9c14.7,0,29.3-0.1,44,0c3.1,0,4.3-1,4.2-4.1c-0.1-6.7,0.1-13.5,1.4-20.1c7.5-35.9,41.1-59.4,77.4-54
		c24.2,3.6,41.4,16.9,52,38.7c5.4,11.1,6.6,23,6.2,35.2c-0.1,4.1,0.1,4.2,4.2,4.2c15.1,0,30.2,0,45.3,0c6.5,0,10.3,3.2,10.9,9.6
		c1.1,11.6,1.9,23.1,2.8,34.7c0.9,11.8,1.9,23.6,2.8,35.3c1.2,15.1,2.5,30.3,3.7,45.4c1,11.8,1.9,23.6,2.8,35.3
		c1.2,14.9,2.5,29.8,3.7,44.7c1,12.3,1.9,24.7,3.1,37C348.9,360.6,347.7,365.1,342.5,367.9z M200.8,112.9c9.5,0,19.1,0,28.6,0
		c6,0,11.9,0,17.9,0c1.9,0,3.1-0.6,3.1-2.8c-0.1-6.1,0.3-12.1-0.9-18.2c-3.9-19.3-19.5-34.9-38.4-38.5c-20.8-3.9-41.6,4.9-52.5,22.1
		c-6.5,10.2-8.1,21.3-7.6,33c0.2,4,0.3,4.3,4.3,4.3C170.4,112.9,185.6,112.9,200.8,112.9z"/>
</g>
</svg>
