<?xml version="1.0" encoding="utf-8"?>
<!-- Generator: Adobe Illustrator 24.1.3, SVG Export Plug-In . SVG Version: 6.00 Build 0)  -->
<svg version="1.1" id="Layer_1" xmlns="http://www.w3.org/2000/svg" xmlns:xlink="http://www.w3.org/1999/xlink" x="0px" y="0px"
	 viewBox="0 0 200 200" style="enable-background:new 0 0 200 200;" xml:space="preserve">
<style type="text/css">
	.st0{fill:#FFFFFF;}
</style>
<g>
	<path class="st0" d="M0.4,134.4c0-6.6,0-13.3,0-19.9c0.1-0.5,0.2-1,0.2-1.5c1-12.1,3.4-23.8,7.7-35.1c4.2-11.1,9.4-21.8,17.6-30.6
		c9.7-10.5,21.6-15,35.9-12.5c8.2,1.4,15.6,4.6,22.4,9.3c3.7,2.5,7.6,3.9,12.1,3.8c2.7-0.1,5.5-0.1,8.2,0c4.5,0.1,8.6-1.2,12.3-3.8
		c3.6-2.5,7.4-4.6,11.5-6.2c11.2-4.4,22.5-5.5,33.7-0.3c8.7,4,14.9,10.8,19.9,18.7c7.8,12.4,13,25.9,16,40.2
		c1.2,6,1.9,12.1,2.6,18.1c0,6.5,0,13,0,19.5c-0.3,3.1-0.6,6.2-1.1,9.3c-0.8,5.3-1.5,10.7-4.4,15.5c-3.8,6.3-11,9.5-17.9,7.7
		c-3.8-1-7-3.3-10.1-5.8c-9.1-7.1-16.8-15.5-24.3-24.2c-3.1-3.7-7-5.4-11.8-5.4c-20.3,0-40.6,0-60.9,0c-4.7,0-8.7,1.8-11.8,5.5
		c-5,5.9-10.3,11.6-15.9,16.9c-4.5,4.3-9.1,8.4-14.6,11.4c-8.1,4.4-17.5,1.6-22-6.4c-1.5-2.6-2.4-5.5-3-8.4
		C1.5,144.8,1,139.6,0.4,134.4z M42.5,79.3C42.5,79.3,42.5,79.3,42.5,79.3c-1.7,0-3.4,0.1-5.1,0c-1.4,0-2.1,0.6-2.6,1.9
		c-1,3.1-1,6.2,0,9.4c0.5,1.4,1.4,2.1,2.9,2.1c3-0.1,6,0,9,0c1.6,0,2.4,0.5,2.3,2.3c-0.1,3.1,0,6.1-0.1,9.2c0,1.4,0.5,2.3,1.8,2.9
		c3.5,1.6,6.9,1.3,10.4-0.3c1.1-0.5,1.3-1.3,1.3-2.4c0-3.1,0.1-6.1,0-9.2c-0.1-1.9,0.6-2.6,2.5-2.5c3.2,0.1,6.4,0,9.6,0
		c1,0,1.9-0.1,2.4-1.2c1.6-3.3,2-6.7,0.3-10.1c-0.6-1.3-1.5-2-3-1.9c-2.9,0.1-5.9,0-8.8,0c-1.8,0.1-2.6-0.6-2.5-2.5
		c0.1-3.1,0-6.2,0.1-9.4c0-1.4-0.6-2.1-1.9-2.5c-3-0.9-6-1.1-9.1-0.4c-1.7,0.4-2.4,1.2-2.4,3c0.1,3.1,0,6.2,0,9.4
		c0,1.8-0.7,2.5-2.4,2.4C45.6,79.3,44,79.3,42.5,79.3z M139.1,107.7c5.9,0,10.7-4.8,10.7-10.6c0-5.7-4.9-10.6-10.6-10.6
		c-5.8,0-10.6,4.8-10.6,10.6C128.6,102.9,133.3,107.7,139.1,107.7z M128.7,67.2c0,5.8,4.7,10.6,10.5,10.7
		c5.8,0.1,10.7-4.9,10.7-10.7c0-5.8-4.8-10.5-10.6-10.5C133.3,56.7,128.7,61.4,128.7,67.2z M176.8,83.4c0-5.9-4.6-10.6-10.4-10.7
		c-6-0.1-10.8,4.6-10.8,10.5c0,5.8,4.8,10.6,10.5,10.7C171.9,94,176.8,89.2,176.8,83.4z"/>
</g>
</svg>
