<?xml version="1.0" encoding="utf-8"?>
<!-- Generator: Adobe Illustrator 24.1.3, SVG Export Plug-In . SVG Version: 6.00 Build 0)  -->
<svg version="1.1" id="Layer_1" xmlns="http://www.w3.org/2000/svg" xmlns:xlink="http://www.w3.org/1999/xlink" x="0px" y="0px"
	 viewBox="0 0 1000 1000" style="enable-background:new 0 0 1000 1000;" xml:space="preserve">
<style type="text/css">
	.st0{fill:#FFFFFF;}
</style>
<g>
	<path class="st0" d="M484.4,2c11.7,0,23.4,0,35.2,0c22.6,5.3,40.5,18,56.8,34.3c129.4,129.7,258.9,259.3,388.6,388.6
		c17.2,17.1,31.3,35.6,37,59.6c0,11.7,0,23.4,0,35.2c-13.2,46.5-42.7,72.9-92,75.7c-13.4,0.8-13.7,1.5-13.7,16.5
		c0,89.7,0,179.4,0,269.1c0,23.6-2.5,46.6-14.9,67.6c-17.1,28.9-42.7,45.6-74.7,53.5c-63.2,0-126.3,0-189.5,0
		c-15.1-7.6-20.5-20-20.4-36.7c0.4-74.8,0.2-149.6,0.1-224.3c0-31.6-19.5-51-51.1-51.2c-28.6-0.2-57.3,0.9-85.8-0.3
		c-34.3-1.5-53.8,25.3-53.4,53.4c1,74.1,0.1,148.3,0.5,222.4c0.1,16.7-5.3,29.1-20.3,36.7c-63.2,0-126.3,0-189.5,0
		c-31.6-7.9-57.1-24.1-74.3-52.6c-12.6-20.9-15.5-43.8-15.5-67.5c0-54,0-107.9,0-161.9c0-37.4-0.2-74.8,0.1-112.1
		c0.1-8.5-2.8-12.5-11.7-12.7c-9.4-0.3-18.8-1-27.9-3.9c-35.9-11.2-56.7-36.1-66-71.8c0-11.7,0-23.4,0-35.2
		c5.4-23,18.4-41,34.9-57.5c130-129.6,259.8-259.3,389.3-389.3C442.9,20.8,461,7.4,484.4,2z"/>
</g>
</svg>
