<?xml version="1.0" encoding="utf-8"?>
<!-- Generator: Adobe Illustrator 24.1.3, SVG Export Plug-In . SVG Version: 6.00 Build 0)  -->
<svg version="1.1" id="Layer_1" xmlns="http://www.w3.org/2000/svg" xmlns:xlink="http://www.w3.org/1999/xlink" x="0px" y="0px"
	 viewBox="0 0 200 200" style="enable-background:new 0 0 200 200;" xml:space="preserve">
<style type="text/css">
	.st0{fill:#FFFFFF;}
</style>
<g>
	<path class="st0" d="M92.9,1.4c5.4,0,10.9,0,16.3,0c4,0.6,8,0.9,11.8,1.8c39.2,9.3,64.6,33.4,76.2,72c1.7,5.7,2.4,11.6,3.2,17.5
		c0,5.4,0,10.9,0,16.3c-0.6,4-0.9,8-1.8,11.9c-9.3,39.3-33.3,64.7-71.8,76.3c-5.7,1.7-11.6,2.4-17.5,3.2c-5.4,0-10.9,0-16.3,0
		c-0.3-0.1-0.6-0.2-0.9-0.2c-17.6-1.6-33.7-7.6-48.2-17.7C11.6,159.9-4.9,119.3,3.7,80.9c8.8-39.3,33.1-64.6,71.5-76.3
		C81,2.9,87,2.1,92.9,1.4z M88.4,118C88.4,118,88.4,118,88.4,118c0,8.9-0.1,17.7,0,26.6c0.1,6.8,5.7,12.2,12.6,12.2
		c6.9,0,12.6-5.3,12.7-12.1c0.1-17.7,0.1-35.4,0-53c0-4.5-2.3-8.1-6.2-10.4c-8.5-5-18.9,1-19.1,10.8C88.3,100.8,88.4,109.4,88.4,118
		z M101.3,46.6c-3.9-0.1-7.3,1-9.7,3.9c-3.1,3.7-3.6,8-1.8,12.4c1.7,4.2,5.1,6.4,9.6,6.8c5.2,0.5,9.7-0.9,12.5-5.6
		C116,56.9,111.5,46.4,101.3,46.6z"/>
</g>
</svg>
