<?xml version="1.0" encoding="utf-8"?>
<!-- Generator: Adobe Illustrator 24.1.3, SVG Export Plug-In . SVG Version: 6.00 Build 0)  -->
<svg version="1.1" id="Layer_1" xmlns="http://www.w3.org/2000/svg" xmlns:xlink="http://www.w3.org/1999/xlink" x="0px" y="0px"
	 viewBox="0 0 1000 1000" style="enable-background:new 0 0 1000 1000;" xml:space="preserve">
<style type="text/css">
	.st0{fill:#FFFFFF;}
</style>
<g>
	<path class="st0" d="M351.6,1002c-11.1,0-22.1,0-33.2,0C235,974.2,151.9,946,68.3,919.1C33.7,907.9,11.1,886.8,2,851.6
		C2,590.5,2,329.4,2,68.4C11.4,33.5,33.6,11.4,68.4,2c165.4,0,330.7,0,496.1,0c0.9,0.3,1.8,0.8,2.7,1
		c64.7,15.7,102.8,63.8,103,130.2c0.1,36.8,0.1,73.5-0.1,110.3c0,6.1-0.5,12.4-1.8,18.4c-4.8,21.9-26.7,36.1-48.7,32
		c-22.2-4.1-35.7-21.2-35.8-46.6c-0.3-39,0-78.1-0.1-117.2c-0.1-27.6-16.2-43.5-43.8-43.5c-43.9-0.1-87.9,0-131.8,0
		c-15.2,0-30.4,0-47,0c1.9,1.5,2.5,2.2,3.3,2.5c38.4,16.2,55.9,45.9,55.9,86.7c0.1,198.5,0,397,0,595.5c0,3.6,0.2,7.2,0,10.7
		c-0.5,7.5,2.8,10.4,10.4,10.4c38.1-0.2,76.1,0.1,114.2-0.2c21.4-0.2,38-17.2,38.8-38.6c0.2-4.5,0.1-9.1,0.1-13.7
		c0-49.1,0-98.3,0-147.4c0-11.9,1.8-23.3,9.3-33.2c10.9-14.2,29.2-20.1,46.2-15c18.5,5.6,30.2,21.2,30.7,42.9
		c0.6,23.7,0.5,47.5,0.2,71.3c-0.5,35.8,1.9,71.6-1.4,107.3c-5.6,61.4-60,111.5-121.6,111.8c-38.4,0.2-76.8,0.3-115.2-0.1
		c-9-0.1-12.1,3.1-11.9,12c0.4,15.6,1.3,31.3-2.3,46.7C409.4,971.7,386.1,992.6,351.6,1002z"/>
	<path class="st0" d="M1002,429.7c-2.9,7.7-6.9,14.6-12.8,20.5c-54.6,54.5-109.1,109-163.6,163.6c-11.8,11.8-25.8,16.4-41.9,12.9
		c-19.1-4.1-32.3-21-32.4-41.1c-0.2-37.1,0-74.2-0.1-111.3c0-12.4-0.3-12.7-12.6-12.7c-50.1,0-100.2,0-150.3,0
		c-16.4,0-30-5.9-38.9-20.1c-8.6-13.7-9.6-28.3-1.8-42.7c7.9-14.6,20.4-22.5,37.3-22.5c50.8-0.1,101.5,0,152.3-0.1
		c14.1,0,14.1,0,14.1-14.1c0-36.1,0.1-72.2,0-108.4c-0.1-18.9,8.1-32.8,25.1-40.5c17.6-8,34.2-4.5,47.7,8.8
		c55.7,55.2,111,110.8,166.5,166.3c5.1,5.1,8.3,11.6,11.5,18C1002,414.1,1002,421.9,1002,429.7z"/>
</g>
</svg>
