<?xml version="1.0" encoding="utf-8"?>
<!-- Generator: Adobe Illustrator 24.1.3, SVG Export Plug-In . SVG Version: 6.00 Build 0)  -->
<svg version="1.1" id="Layer_1" xmlns="http://www.w3.org/2000/svg" xmlns:xlink="http://www.w3.org/1999/xlink" x="0px" y="0px"
	 viewBox="0 0 200 200" style="enable-background:new 0 0 200 200;" xml:space="preserve">
<style type="text/css">
	.st0{opacity:0.6;}
</style>
<g class="st0">
	<g>
		<path d="M93.8,0.4c4.4,0,8.9,0,13.3,0c0.6,0.1,1.1,0.3,1.7,0.4c5.7,0.7,11.2,1.9,16.3,4.4c24.9,12.2,38.8,31.7,39.1,60
			c0.1,7.8,0.1,15.6,0,23.4c0,1.9,0.7,2.5,2.5,2.5c2.7,0,5.4,0.2,7.8,1.4c5.8,2.9,8,7.8,8,14.1c0,26.2,0,52.5,0,78.7
			c0,1.7-0.1,3.4-0.6,5c-1.4,5.4-5.2,8.5-10.4,10.1c-47.4,0-94.8,0-142.2,0c-8-2.5-10.9-8-11-14.8c0-26.5,0-53,0-79.5
			c0-2.5,0.3-4.9,1.4-7.2c2.9-5.7,7.8-7.9,14-7.9c2.8,0,2.9-0.1,2.9-2.9c0-9,0-18,0.1-26.9c0.1-5.8,1.2-11.4,2.9-16.9
			c3.1-9.6,8.4-17.9,15.5-25C61.9,12.5,69.8,7.2,79,3.8C83.8,2.1,88.8,1.3,93.8,0.4z M100.3,91c11.3,0,22.5,0,33.8,0
			c1.3,0,2.5,0,2.5-1.8c-0.2-9.6,0.6-19.2-0.3-28.7c-2-21.3-21.6-35.9-42.6-32c-17.1,3.2-29.3,17.9-29.5,35.6c-0.1,8,0,16,0,24
			c0,2.9,0.1,2.9,3,2.9C78.2,91,89.3,91,100.3,91z"/>
	</g>
</g>
</svg>
