<?xml version="1.0" encoding="utf-8"?>
<!-- Generator: Adobe Illustrator 24.1.3, SVG Export Plug-In . SVG Version: 6.00 Build 0)  -->
<svg version="1.1" id="Layer_1" xmlns="http://www.w3.org/2000/svg" xmlns:xlink="http://www.w3.org/1999/xlink" x="0px" y="0px"
	 viewBox="0 0 400 400" style="enable-background:new 0 0 400 400;" xml:space="preserve">
<style type="text/css">
	.st0{fill:#1B1464;}
</style>
<g>
	<path class="st0" d="M392.7,92.6c-5.7,19.6-11.4,39.3-17,58.9c-9.1,31.9-18.2,63.8-27.3,95.6c-2.2,7.8-5.7,10.4-13.8,10.4
		c-62.5,0-125,0-187.5,0c-6.3,0-9.1,2.5-10.1,9c-0.9,5.6,2.2,10.6,7.5,12.2c2.3,0.7,4.7,0.7,7,0.7c61.2,0,122.5,0,183.7,0
		c7.5,0,12.4,4.3,12.7,10.8c0.3,6.8-4.5,12.1-11.4,12.1c-12.1,0.1-24.2,0-37.5,0c9.9,3.1,17.1,8.1,21.9,16.2
		c4.8,8.3,5.9,17.2,3.4,26.4c-4.4,16.1-19.1,25.9-36.4,24.7c-14.6-1-28.1-13.9-30.1-28.9c-2.2-17.4,7.7-32.9,25.7-38.2
		c-32.5,0-64.4,0-96.6,0c4.3,1.6,8.5,3.3,12,6c3.6,2.8,6.6,6.1,8.9,10c2.3,4,4,8.4,4.4,13c0.4,4.5,0.3,9-0.9,13.4
		c-4.5,16-19.1,25.9-36.5,24.7c-14.6-1-28.1-13.8-30.1-28.9c-2.3-17.5,7.7-32.9,25.1-38.4c-7.3,0-14.6,0-21.9,0
		c-26-0.1-42.4-26-30.7-49.2c3.1-6.1,3.2-11.3,1.4-17.7c-16.9-58.4-33.6-116.9-50.2-175.5c-1-3.7-2.6-4.8-6.4-4.8
		c-13.3,0.2-26.7,0.1-40,0.1C14.3,55.4,9.3,51,9.3,44c0-7,5-11.6,12.7-11.6c17.6,0,35.2,0,52.8,0c7.3,0,10.9,2.8,12.9,9.9
		c2.9,10.2,6,20.3,8.7,30.6c0.9,3.4,2.4,4.5,5.9,4.5c92.3-0.1,184.6,0,276.9-0.2c6.4,0,10.8,2.1,13.6,7.8
		C392.7,87.6,392.7,90.1,392.7,92.6z"/>
</g>
</svg>
