<?xml version="1.0" encoding="utf-8"?>
<!-- Generator: Adobe Illustrator 24.1.3, SVG Export Plug-In . SVG Version: 6.00 Build 0)  -->
<svg version="1.1" id="Layer_1" xmlns="http://www.w3.org/2000/svg" xmlns:xlink="http://www.w3.org/1999/xlink" x="0px" y="0px"
	 viewBox="0 0 200 200" style="enable-background:new 0 0 200 200;" xml:space="preserve">
<style type="text/css">
	.st0{fill:#FFFFFF;}
</style>
<g>
	<path class="st0" d="M200.4,92.2c0,5.5,0,10.9,0,16.4c-0.5,3.6-0.8,7.3-1.6,10.8c-8.9,39.3-32.5,65.1-70.9,77.4
		c-6.3,2-12.8,2.8-19.3,3.6c-5.5,0-10.9,0-16.4,0c-3.6-0.5-7.3-0.8-10.8-1.6c-39.7-9-65.6-32.9-77.6-71.8c-1.9-6-2.6-12.2-3.4-18.4
		c0-5.5,0-10.9,0-16.4c0.5-3.6,0.8-7.3,1.6-10.8C10.8,42.1,34.5,16.3,72.9,4c6.3-2,12.8-2.8,19.3-3.6c5.5,0,10.9,0,16.4,0
		c3.6,0.5,7.3,0.8,10.8,1.6c39.7,9,65.6,32.9,77.6,71.8C198.9,79.8,199.6,86,200.4,92.2z M99.1,113.5c-0.8,0.8-1.5,0.6-2.2,0.7
		c-2.3,0.2-4.6,0.2-6.8,0.6c-25.6,4.5-43.7,18.6-54.4,42.4c-0.7,1.6-0.4,2.6,0.7,3.8c20.4,20.7,45,30,73.9,27
		c21.4-2.2,39.3-11.6,54.2-27.1c1.1-1.1,1.3-2,0.7-3.4c-4.4-10.6-11-19.6-19.8-27c-10.6-8.8-22.7-14.1-36.4-15.8
		c-2.3-0.3-4.7-0.1-7.1-0.8c10.6-0.9,19.3-5.2,25.9-13.5c6.6-8.4,8.8-18,6.8-28.5c-2.8-14.6-15.4-27.9-34.1-28
		c-17.9-0.1-31.1,12.5-34.3,27.9c-1.7,8.3-0.6,16.4,3.6,23.8C76.2,106.5,86,112.4,99.1,113.5z"/>
</g>
</svg>
