<?xml version="1.0" encoding="utf-8"?>
<!-- Generator: Adobe Illustrator 24.1.3, SVG Export Plug-In . SVG Version: 6.00 Build 0)  -->
<svg version="1.1" id="Layer_1" xmlns="http://www.w3.org/2000/svg" xmlns:xlink="http://www.w3.org/1999/xlink" x="0px" y="0px"
	 viewBox="0 0 200 200" style="enable-background:new 0 0 200 200;" xml:space="preserve">
<style type="text/css">
	.st0{opacity:0.6;}
</style>
<g class="st0">
	<g>
		<path d="M16.8,200.4c-3.3-1.4-4.5-4-4.4-7.5c0.6-18.1,6.5-34.1,18.2-48c12-14.2,27.1-23,45.5-26.3c3.5-0.6,6.9-1,10.5-1
			c8.7,0,17.4-0.1,26.2,0c17.6,0.1,33.2,5.8,46.8,16.8c15.2,12.3,24.4,28.2,27.8,47.4c0.6,3.6,0.9,7.3,1.1,11.1c0.1,3.4-0.9,6-4,7.6
			C128.5,200.4,72.7,200.4,16.8,200.4z"/>
		<path d="M106.3,0.4c2.3,0.5,4.7,0.9,7,1.5c21.2,5.4,36.9,23,39.5,44.7c1.9,15.6-2.3,29.4-12.6,41.2c-11.6,13.2-26.4,19.1-43.8,18
			C71.9,104.3,51,84.1,48,59.7c-3.4-28.1,15.7-53,41.8-58.3c1.7-0.4,3.4-0.7,5.1-1C98.7,0.4,102.5,0.4,106.3,0.4z"/>
	</g>
</g>
</svg>
